<mxfile host="app.diagrams.net" modified="2023-12-06T23:09:44.296Z" agent="Mozilla/5.0 (Windows NT 10.0; Win64; x64) AppleWebKit/537.36 (KHTML, like Gecko) Chrome/119.0.0.0 Safari/537.36" etag="xWvmHlMjwJoGO2LRSYlQ" version="22.1.7" type="device">
  <diagram name="Страница — 1" id="h426fIn1qN7WgwidPbTB">
    <mxGraphModel dx="1050" dy="534" grid="1" gridSize="10" guides="1" tooltips="1" connect="1" arrows="1" fold="1" page="1" pageScale="1" pageWidth="827" pageHeight="1169" math="0" shadow="0">
      <root>
        <mxCell id="0" />
        <mxCell id="1" parent="0" />
        <mxCell id="lHgkRuD5aa3S1vtb8oEv-15" value="" style="edgeStyle=orthogonalEdgeStyle;rounded=0;orthogonalLoop=1;jettySize=auto;html=1;" edge="1" parent="1" source="lHgkRuD5aa3S1vtb8oEv-11" target="lHgkRuD5aa3S1vtb8oEv-10">
          <mxGeometry relative="1" as="geometry" />
        </mxCell>
        <mxCell id="lHgkRuD5aa3S1vtb8oEv-11" value="" style="rounded=0;whiteSpace=wrap;html=1;" vertex="1" parent="1">
          <mxGeometry x="280" y="150" width="180" height="45" as="geometry" />
        </mxCell>
        <mxCell id="lHgkRuD5aa3S1vtb8oEv-12" value="" style="edgeStyle=orthogonalEdgeStyle;rounded=0;orthogonalLoop=1;jettySize=auto;html=1;" edge="1" parent="1" source="lHgkRuD5aa3S1vtb8oEv-1" target="lHgkRuD5aa3S1vtb8oEv-9">
          <mxGeometry relative="1" as="geometry" />
        </mxCell>
        <mxCell id="lHgkRuD5aa3S1vtb8oEv-1" value="" style="sketch=0;points=[[0.5,0,0],[1,0.5,0],[0.5,1,0],[0,0.5,0],[0.145,0.145,0],[0.8555,0.145,0],[0.855,0.8555,0],[0.145,0.855,0]];verticalLabelPosition=bottom;html=1;verticalAlign=top;aspect=fixed;align=center;pointerEvents=1;shape=mxgraph.cisco19.rect;prIcon=router;fillColor=#FAFAFA;strokeColor=#005073;" vertex="1" parent="1">
          <mxGeometry x="260" y="250" width="50" height="50" as="geometry" />
        </mxCell>
        <mxCell id="lHgkRuD5aa3S1vtb8oEv-13" value="" style="edgeStyle=orthogonalEdgeStyle;rounded=0;orthogonalLoop=1;jettySize=auto;html=1;" edge="1" parent="1" source="lHgkRuD5aa3S1vtb8oEv-2" target="lHgkRuD5aa3S1vtb8oEv-9">
          <mxGeometry relative="1" as="geometry" />
        </mxCell>
        <mxCell id="lHgkRuD5aa3S1vtb8oEv-2" value="" style="sketch=0;points=[[0.5,0,0],[1,0.5,0],[0.5,1,0],[0,0.5,0],[0.145,0.145,0],[0.8555,0.145,0],[0.855,0.8555,0],[0.145,0.855,0]];verticalLabelPosition=bottom;html=1;verticalAlign=top;aspect=fixed;align=center;pointerEvents=1;shape=mxgraph.cisco19.rect;prIcon=router;fillColor=#FAFAFA;strokeColor=#005073;" vertex="1" parent="1">
          <mxGeometry x="420" y="250" width="50" height="50" as="geometry" />
        </mxCell>
        <mxCell id="lHgkRuD5aa3S1vtb8oEv-3" value="Router1" style="text;html=1;align=center;verticalAlign=middle;resizable=0;points=[];autosize=1;strokeColor=none;fillColor=none;" vertex="1" parent="1">
          <mxGeometry x="250" y="308" width="70" height="30" as="geometry" />
        </mxCell>
        <mxCell id="lHgkRuD5aa3S1vtb8oEv-4" value="Router2" style="text;html=1;align=center;verticalAlign=middle;resizable=0;points=[];autosize=1;strokeColor=none;fillColor=none;" vertex="1" parent="1">
          <mxGeometry x="410" y="308" width="70" height="30" as="geometry" />
        </mxCell>
        <mxCell id="lHgkRuD5aa3S1vtb8oEv-8" value="" style="shape=mxgraph.cisco.storage.cloud;sketch=0;html=1;pointerEvents=1;dashed=0;fillColor=#036897;strokeColor=#ffffff;strokeWidth=2;verticalLabelPosition=bottom;verticalAlign=top;align=center;outlineConnect=0;" vertex="1" parent="1">
          <mxGeometry x="260" y="10" width="186" height="106" as="geometry" />
        </mxCell>
        <mxCell id="lHgkRuD5aa3S1vtb8oEv-9" value="VPN Server with Ansible" style="text;html=1;align=center;verticalAlign=middle;resizable=0;points=[];autosize=1;strokeColor=none;fillColor=none;" vertex="1" parent="1">
          <mxGeometry x="296" y="165" width="150" height="30" as="geometry" />
        </mxCell>
        <mxCell id="lHgkRuD5aa3S1vtb8oEv-10" value="Internet" style="text;html=1;align=center;verticalAlign=middle;resizable=0;points=[];autosize=1;strokeColor=none;fillColor=none;" vertex="1" parent="1">
          <mxGeometry x="333" y="48" width="60" height="30" as="geometry" />
        </mxCell>
        <mxCell id="lHgkRuD5aa3S1vtb8oEv-17" value="" style="endArrow=none;html=1;rounded=0;exitX=1;exitY=0.5;exitDx=0;exitDy=0;exitPerimeter=0;entryX=0;entryY=0.5;entryDx=0;entryDy=0;entryPerimeter=0;" edge="1" parent="1" source="lHgkRuD5aa3S1vtb8oEv-1" target="lHgkRuD5aa3S1vtb8oEv-2">
          <mxGeometry width="50" height="50" relative="1" as="geometry">
            <mxPoint x="390" y="200" as="sourcePoint" />
            <mxPoint x="440" y="150" as="targetPoint" />
          </mxGeometry>
        </mxCell>
        <mxCell id="lHgkRuD5aa3S1vtb8oEv-18" value="inner LAN ip" style="text;html=1;align=center;verticalAlign=middle;resizable=0;points=[];autosize=1;strokeColor=none;fillColor=none;" vertex="1" parent="1">
          <mxGeometry x="320" y="278" width="90" height="30" as="geometry" />
        </mxCell>
        <mxCell id="lHgkRuD5aa3S1vtb8oEv-19" value="158.160.134.205" style="text;html=1;align=center;verticalAlign=middle;resizable=0;points=[];autosize=1;strokeColor=none;fillColor=none;" vertex="1" parent="1">
          <mxGeometry x="315" y="150" width="110" height="30" as="geometry" />
        </mxCell>
        <mxCell id="lHgkRuD5aa3S1vtb8oEv-20" value="192.168.1.19" style="text;html=1;align=center;verticalAlign=middle;resizable=0;points=[];autosize=1;strokeColor=none;fillColor=none;" vertex="1" parent="1">
          <mxGeometry x="170" y="230" width="90" height="30" as="geometry" />
        </mxCell>
        <mxCell id="lHgkRuD5aa3S1vtb8oEv-21" value="192.168.1.20" style="text;html=1;align=center;verticalAlign=middle;resizable=0;points=[];autosize=1;strokeColor=none;fillColor=none;" vertex="1" parent="1">
          <mxGeometry x="460" y="230" width="90" height="30" as="geometry" />
        </mxCell>
      </root>
    </mxGraphModel>
  </diagram>
</mxfile>
